<svg id="Layer_1" data-name="Layer 1" xmlns="http://www.w3.org/2000/svg" viewBox="0 0 3462.91 2104.31"><defs><style>.cls-1,.cls-2{fill:#231f20;}.cls-1{fill-rule:evenodd;}</style></defs><path class="cls-1" d="M2724.09,1737.21H241.45v123.58H2790.63V1737.21ZM530,1833.19l-2.31-27.9c-.71-8.84-1.6-19.48-1.42-28.71h-.53a269.16,269.16,0,0,1-14.17,26.17l-17.37,29.63H477.4l-16-29.22a237,237,0,0,1-12-26.58h-.36c-.53,8.93-1.24,19.77-2.13,29.12l-2.65,27.49H423.9l8-68.38h28.71l15.59,27.49a240.6,240.6,0,0,1,11,23.75h.54a232.48,232.48,0,0,1,11.87-23.85L516,1764.81h28.35l6.91,68.38Zm165.87-29.32c0,21.1-19,30.44-47.67,30.44-27.64,0-45.54-8.83-45.54-30.34v-39.16H624.5v39.87c0,13.4,9.74,19.58,24.44,19.58,15.77,0,25.17-6.18,25.17-19.58v-39.87H695.9Zm81.33,30.34c-12.57,0-25.67-2-32.23-4.27l4.78-10.35a96.87,96.87,0,0,0,28.87,4.37c14,0,21.79-3.76,21.79-9.34,0-5.18-6-8.21-21.26-11.36-19.66-4-32.24-10-32.24-19.89,0-11.16,16.3-19.68,42.16-19.68,12.94,0,22.52,1.61,28.71,3.44l-5.3,10.06a82.2,82.2,0,0,0-23.75-3.25c-13.83,0-19.85,4.25-19.85,8.21,0,5.29,6.91,7.71,22.86,11.27,20.74,4.47,30.82,10.45,30.82,20.29C822.59,1824.67,808.07,1834.21,777.23,1834.21Zm116.27-1H871.69v-68.38H893.5Zm112.7-9.33c8.87,0,18.06-1,23.73-2.54l3.56,9.84c-5.14,1.52-16.48,3-30.83,3-37.93,0-60.95-13.59-60.95-34.39,0-22.54,27.27-36.13,63.78-36.13,14.36,0,24.62,1.73,29.06,3l-4.78,9.93a97.15,97.15,0,0,0-23.39-2.63c-24.28,0-41.81,8.72-41.81,25.17C964.57,1814.22,980,1823.86,1006.2,1823.86Zm97.11,9.33H1081.5v-68.38h21.81Zm127.06,0-10.81-19.38h-37.93l-10.27,19.38h-22.49l38.27-68.38H1215l38.8,68.38Zm164.09,0H1372l-31.18-30a233.89,233.89,0,0,1-21.44-23.65l-.55.12a287.66,287.66,0,0,1,1.07,29.1v24.46h-20v-68.38h24.8l30.84,29.32a181.36,181.36,0,0,1,20.37,22.93h.36a180.65,180.65,0,0,1-2-28.42v-23.83h20.21Zm81.52,1c-12.58,0-25.7-2-32.24-4.27l4.78-10.35a97,97,0,0,0,28.88,4.37c14,0,21.8-3.76,21.8-9.34,0-5.18-6-8.21-21.26-11.36-19.68-4-32.25-10-32.25-19.89,0-11.16,16.3-19.68,42.17-19.68,12.92,0,22.5,1.61,28.7,3.44l-5.33,10.06a81.91,81.91,0,0,0-23.73-3.25c-13.81,0-19.84,4.25-19.84,8.21,0,5.29,6.9,7.71,22.86,11.27,20.71,4.47,30.82,10.45,30.82,20.29C1521.34,1824.67,1506.82,1834.21,1476,1834.21Zm233.2-1-10.81-19.38h-37.91l-10.29,19.38h-22.49l38.27-68.38h27.8l38.82,68.38Zm124-9.33c8.87,0,18.06-1,23.73-2.54l3.56,9.84c-5.14,1.52-16.48,3-30.85,3-37.91,0-60.92-13.59-60.92-34.39,0-22.54,27.26-36.13,63.76-36.13,14.37,0,24.65,1.73,29.07,3l-4.78,9.93a97.24,97.24,0,0,0-23.4-2.63c-24.27,0-41.8,8.72-41.8,25.17C1791.59,1814.22,1807,1823.86,1833.22,1823.86Zm149.19,9.33-10.81-19.38h-37.91l-10.28,19.38h-22.48l38.27-68.38H1967l38.8,68.38Zm153-8.62c-11.86,6.18-30.82,9.33-54,9.33-12.76,0-22.32-.41-29.41-.91v-67.28c9.56-.9,21.79-1.41,34.71-1.41,22.32,0,37.75,2.63,48.72,7.91,11.54,5.37,18.63,13.5,18.63,25.17C2154,1809.56,2146.7,1818.69,2135.36,1824.57Zm139.11,8.62h-72.09v-68.38h69.45V1775h-47.66v17.67h45v10.14h-45v20.09h50.3Zm151.7,0-2.31-27.9c-.72-8.84-1.58-19.48-1.42-28.71h-.52a267.17,267.17,0,0,1-14.18,26.17l-17.37,29.63h-16.81l-16-29.22a237.33,237.33,0,0,1-12.06-26.58h-.33c-.56,8.93-1.25,19.77-2.14,29.12l-2.67,27.49H2320l8-68.38h28.71l15.6,27.49a235.93,235.93,0,0,1,11,23.75h.53a241,241,0,0,1,11.87-23.85l16.48-27.39h28.35l6.92,68.38Zm121.73-28.81v28.81h-21.79v-28.51l-37.74-39.87h24.82l14.34,17.55c4.09,5.08,7.09,8.92,10.29,13.6h.36c3-4.37,6.36-8.64,10.45-13.6l14.34-17.55h24.62Z"/><path class="cls-1" d="M2088.59,1774a117.59,117.59,0,0,0-14.87.71v48.9c3,.31,7.62.31,12,.31,28.35.1,45.2-8.83,45.2-26.19C2131.11,1782.66,2115.88,1774,2088.59,1774Z"/><path class="cls-1" d="M1679.23,1774.75h-.34c-1.78,4-3.56,8.72-5.67,12.79l-9.23,16.84h30.65l-9.39-16.84C1683,1783.37,1681,1778.7,1679.23,1774.75Z"/><path class="cls-1" d="M1200.42,1774.75h-.36c-1.77,4-3.53,8.72-5.67,12.79l-9.2,16.84h30.64l-9.38-16.84C1204.15,1783.37,1202.2,1778.7,1200.42,1774.75Z"/><path class="cls-1" d="M1952.48,1774.75h-.36c-1.75,4-3.53,8.72-5.67,12.79l-9.2,16.84h30.66l-9.4-16.84C1956.21,1783.37,1954.26,1778.7,1952.48,1774.75Z"/><polygon class="cls-2" points="2790.63 744.43 586.94 744.43 587.02 741.67 558.99 740.38 544.22 739.53 523.83 736.1 504.47 731.81 493.26 727.1 484.6 722.38 474.4 715.53 464.22 708.24 451.99 695.38 443.83 685.52 435.17 672.66 429.57 664.09 426 658.51 380.14 662.37 347.02 667.95 317.46 673.09 281.29 683.38 225.75 694.95 211.48 696.66 203.33 697.1 195.69 697.52 191.1 697.1 184.98 696.23 179.89 695.81 175.82 694.52 171.74 692.8 167.66 688.95 164.6 685.09 151.86 663.66 143.71 652.95 133.01 644.38 122.31 638.38 111.61 634.52 101.93 632.37 94.29 631.08 85.62 631.08 74.92 631.95 61.17 635.37 50.97 639.65 36.2 647.37 26.01 656.38 15.82 667.09 6.64 686.81 5.12 698.81 4.61 714.66 7.66 728.38 14.79 744.24 22.95 755.38 31.1 763.53 37.22 768.67 48.94 776.82 62.69 783.67 473.9 905.83 485.62 909.25 494.79 910.11 501.41 910.54 508.04 909.25 513.64 907.97 517.72 905.83 521.29 902.39 546.25 874.11 550.33 870.25 553.9 868.54 558.99 868.11 560.73 868.01 2790.63 868.01 2790.63 744.43"/><path class="cls-2" d="M492.19,1295.91c-3.69-9.24-9.6-37.85-15.3-65.51-2.66-12.89-5.43-26.33-8.24-39.22-7.11-32.39-17.18-54-31.78-67.4,24.14-17.48,45-50.26,45-93.56,0-37.09-10.59-66.22-31.3-86.43-22.77-23.12-55.21-33.43-105.18-33.43-35.2,0-69.11,3.15-93,8.65l-8.66,2V1311.2h89.65V1163.46H342c18.44.37,30.17,3,38.77,51.08,8,43.75,15.94,77.34,21.2,89.84l2.88,6.82h93.45Zm-100.45-259c0,27.28-15.6,42.93-42.82,42.93H333.31V997a190.73,190.73,0,0,1,19.63-.81C378.69,996.21,391.74,1009.91,391.74,1036.91Z"/><path class="cls-2" d="M635.7,907c-92.7,0-157.45,85.52-157.45,208,0,119.16,62.73,202.37,152.54,202.37h.45c96.18,0,158.34-82,158.34-209.06C789.58,987.89,727.74,907,635.7,907Zm-1.78,320.57h-.45c-36.24,0-61.55-47.23-61.55-114.85,0-55.85,19.4-116,62-116,42,0,61.1,59.24,61.1,114.29C695,1169.05,676.13,1227.58,633.92,1227.58Z"/><path class="cls-2" d="M1019.44,1213.24c-12.54,6.57-33.4,11-51.92,11-53.06,0-84.74-41.68-84.74-111.5,0-71.21,31.51-113.73,84.3-113.73,23.58,0,41.18,6.85,51.78,12.6l13.1,7.1,19-89-6.44-4.18C1031.32,917,1002.44,907,964.4,907c-104.84,0-175.28,84.47-175.28,210.18,0,57.4,14.56,106.4,42.1,141.71,29.83,38.23,73.57,58.43,126.49,58.43,36.58,0,67.78-8.92,82.47-17.76l6.36-3.83-13.17-89.8Z"/><path class="cls-2" d="M1224.64,1085l106.81-171.83H1220.9l-71,130.79-.87,1.63V913.14h-89.64V1311.2H1149V1180.68l12.62-19.64,68.54,150.16h103.89Z"/><path class="cls-2" d="M1457.16,1067c-40.67-19.64-49.45-27.36-49.45-43.48,0-12.13,8.55-25.09,32.56-25.09a108.12,108.12,0,0,1,56.54,16.15l13.36,8.35,20.35-91.28-6.94-4.12c-22.94-13.62-50.66-20.53-82.42-20.53-73.53,0-124.88,50.9-124.88,123.77,0,54.58,30.13,95.7,89.68,122.29,36.53,15.78,43.68,27.41,43.68,42.17,0,24.89-19.89,30.11-36.58,30.11-26.81,0-53.35-11.15-69.26-21.59l-13.83-9.08-18.48,93.11,6,4.15c17.71,12.23,53.9,25.39,91.53,25.39,80.2,0,132-50.11,132-127.66C1541.08,1132.44,1514.35,1093.44,1457.16,1067Z"/><polygon class="cls-2" points="1533.48 913.14 1533.48 1006.8 1614.66 1006.8 1614.66 1311.2 1704.75 1311.2 1704.75 1006.8 1786.83 1006.8 1786.83 913.14 1533.48 913.14"/><path class="cls-2" d="M1970.36,913.14H1864.14L1766.8,1311.2h93.66l21-96.45h68.76l23.19,96.45h96.2Zm-55.24,130.78c1.34,6.56,2.68,12.94,4,19l15.51,66h-38.39l15.21-66.33C1912.66,1056.75,1913.88,1050.45,1915.12,1043.92Z"/><path class="cls-2" d="M2463.77,1067c-40.67-19.65-49.45-27.38-49.45-43.49,0-12.13,8.55-25.09,32.56-25.09a108,108,0,0,1,56.53,16.15l13.37,8.35,20.35-91.28-7-4.12c-22.92-13.62-50.66-20.53-82.4-20.53-73.54,0-124.89,50.9-124.89,123.77,0,54.58,30.13,95.71,89.69,122.29,36.52,15.78,43.66,27.41,43.66,42.17,0,24.89-19.87,30.11-36.56,30.11-26.82,0-53.37-11.15-69.27-21.59l-13.84-9.08-18.46,93.11,6,4.15c17.7,12.23,53.91,25.39,91.53,25.39,80.2,0,132-50.11,132-127.66C2547.68,1132.44,2521,1093.44,2463.77,1067Z"/><path class="cls-2" d="M655.4,1339.22C562.7,1339.22,498,1415,498,1523.56,498,1629.2,560.68,1703,650.5,1703h.44c96.19,0,158.34-72.73,158.34-185.3C809.28,1410.94,747.44,1339.22,655.4,1339.22Zm-1.78,282.11h-.45c-42.52,0-61.55-50.09-61.55-99.73,0-50.14,19.17-100.71,62-100.71,42,0,61.1,51.44,61.1,99.23C714.72,1581.61,690.74,1621.33,653.62,1621.33Z"/><path class="cls-2" d="M1166.89,1344.62H1058.68l-34,118.09c-5.92,21.54-12.1,46-17.92,70.87-4.9-23.5-10.4-47.06-16.3-69.79l-31.64-119.17H849.14l-20.48,353H914l6.29-136.26c.58-13.54,1.19-28.51,1.79-44.38,3,13.63,6.16,26.83,9.26,39.26l34.24,136h70.2l38.83-137c4.64-15.53,9.39-32.22,14-49.34.48,19.81,1.06,38.24,1.61,54.42l5.32,137.3H1184Z"/><path class="cls-2" d="M1361.42,1339.22c-92.71,0-157.45,75.81-157.45,184.34,0,105.64,62.72,179.42,152.54,179.42h.45c96.18,0,158.33-72.73,158.33-185.3C1515.29,1410.94,1453.46,1339.22,1361.42,1339.22Zm-2.23,282.11c-36.24,0-61.56-41-61.56-99.73,0-50.14,19.18-100.71,62-100.71,42,0,61.11,51.44,61.11,99.23C1420.74,1581.61,1396.75,1621.33,1359.19,1621.33Z"/><path class="cls-2" d="M1790.37,1681.83c-3.61-7.95-9.49-33-15.17-57.28-2.67-11.34-5.44-23.16-8.25-34.51-4.6-18.45-12.55-42.69-30.39-58.47a98.68,98.68,0,0,0,43.65-82.58c0-33.29-10.76-59.42-31.81-77.49-22.7-20.29-55-29.33-104.67-29.33-35.1,0-68.9,2.76-92.75,7.58l-8.94,1.81v346h89.65v-130h8.72c20.35.35,30.81,4.82,38.79,44.1,8,38.67,16,68.42,21.38,79.57l3,6.34h93.93Zm-100.25-226.95c0,23.15-15.61,36.44-42.82,36.44h-15.61v-70.21c4.3-.4,10.56-.71,19.62-.71C1677.07,1420.4,1690.12,1432,1690.12,1454.88Z"/><path class="cls-2" d="M2059.3,1681.83c-3.61-7.95-9.49-33-15.17-57.28-2.67-11.34-5.44-23.16-8.24-34.51-4.6-18.45-12.56-42.69-30.39-58.47a98.68,98.68,0,0,0,43.65-82.58c0-33.29-10.77-59.42-31.82-77.49-22.7-20.29-55-29.33-104.67-29.33-35.09,0-68.9,2.76-92.75,7.58l-8.94,1.81v346h89.65v-130h8.72c20.35.35,30.81,4.82,38.79,44.1,8,38.67,16,68.42,21.38,79.57l3,6.34h93.93Zm-100.24-226.95c0,23.15-15.61,36.44-42.83,36.44h-15.61v-70.21c4.31-.4,10.56-.71,19.62-.71C1946,1420.4,1959.06,1432,1959.06,1454.88Z"/><path class="cls-2" d="M2223.52,1339.22c-92.7,0-157.44,75.81-157.44,184.34,0,105.64,62.72,179.42,152.54,179.42h.44c96.19,0,158.34-72.73,158.34-185.3C2377.4,1410.94,2315.56,1339.22,2223.52,1339.22Zm-1.77,282.11h-.46c-36.24,0-61.55-41-61.55-99.73,0-50.14,19.17-100.71,62-100.71,42,0,61.09,51.44,61.09,99.23C2282.84,1581.61,2258.86,1621.33,2221.75,1621.33Z"/><path class="cls-2" d="M2697.69,1344.62,2671.45,1489q-2.23,14.24-4.52,28.29-1,6.07-1.94,12.06c-1.86-12.14-3.8-24.07-5.89-36.1l-25.68-148.59h-90.88l-27.15,144.05c-2.94,16-5.93,32.35-8.78,48.63-2.44-15.84-5-31.85-7.61-47.47l-24.32-145.21h-95.95l76.18,353h92.62l30.32-151.1c2.11-9.85,4-19.52,5.82-29.29,1.5,9.34,3.12,18.88,4.86,28.93l27.06,151.46h91.77l82.84-353Z"/><path class="cls-2" d="M2731.35,920.11h-105.5c-32.92,0-59.71,30.67-59.71,68.37v248.66c0,37.7,26.79,68.36,59.71,68.36h105.5c32.91,0,59.7-30.66,59.7-68.36V988.48C2791.05,950.78,2764.26,920.11,2731.35,920.11Zm-121.11,37.56h35.68V1027H2670V962.21h35.46V1027h58v49.59H2610.24Zm77.68,317.72c-47.13,0-80-37.93-80-92.23,0-62.23,38.91-90.09,77.47-90.09,48.88,0,80.46,36.41,80.46,92.76C2765.81,1238.67,2733.78,1275.39,2687.92,1275.39Z"/><path class="cls-2" d="M2686.42,1145.34c-21.76,0-43.71,12-43.71,38.89,0,27.23,22.27,39.43,44.36,39.43,26.27,0,43.92-15.75,43.92-39.16C2731,1160.61,2713.5,1145.34,2686.42,1145.34Z"/><polygon class="cls-2" points="240.17 1344.63 240.17 1429.72 321.35 1429.72 321.35 1697.59 411.44 1697.59 411.44 1429.72 493.51 1429.72 493.51 1344.63 240.17 1344.63"/><path class="cls-2" d="M2330,1311.2h-93.46l-2.87-6.82c-5.26-12.52-13.2-46.11-21.2-89.84-8.59-48-20.33-50.71-38.77-51.08H2165V1311.2h-89.64V921l8.65-2c23.93-5.5,57.85-8.65,93-8.65,50,0,82.4,10.31,105.17,33.43,20.72,20.21,31.31,49.35,31.31,86.43,0,43.3-20.84,76.08-45,93.56,14.59,13.42,24.66,35,31.77,67.4,2.81,12.88,5.58,26.3,8.23,39.17,5.71,27.69,11.62,56.32,15.31,65.56Zm-56.47-305.83h-68.46l-21.14-64.94-21.27,64.94h-68.35l55.27,40.26L2128.33,1111l55.57-40.35,55.53,40.4-21.29-65.38Z"/><path class="cls-1" d="M3261.52,21.2c-1.26,13.74-4.87,25.14-5.92,39.09,13.88-1.52,20.08-10.71,37.91-8.29.66,11.33-.46,20.88-5.93,26.07-15.18.17-22-8-32-13a189,189,0,0,0-5.93,47.39c11.87-3.8,27.32-4.69,39.1,0,1.3,9.21-4.12,11.68-8.3,15.41-14.8,2.17-20.85-4.43-30.8-7.11-5.38,12-3.57,31.17-5.92,46.2,15.69,5.34,26.41-10.61,43.83-3.55,4.14,9.14-1.44,18.09-5.92,22.51-15-.76-21-10.61-35.54-11.85-6,10.82-1.54,27.41-5.92,41.46-2.53,8.1-10.67,12-15.41,19-19,28-11.22,68.38-8.29,111.36,5.32,78,11,160,17.77,238.13,16.31,13.44,28.43,23.08,33.17,49.76.91,5.1-.79,12.79,1.19,17.77,2.72,6.81,12.69,8.19,15.4,14.21-4.74,8.78-1.22,10.09,1.18,17.78.73,2.29-1.51,4.6-1.18,8.29.39,4.32,3.57,6.93,3.55,9.48-.08,14-12.16,24.19-14.21,36.72-2.77,16.87,6.69,39.61,15.4,50.95,7.44,9.67,18.19,13.89,26.06,21.32,26,7.13,46.29.16,59.24-14.21,20,5.06,22.5,32.83,13,54.49-9.32,21.35-32.31,31.83-22.51,60.42,5.62,16.37,23.74,30.09,35.54,43.84,27.61,32.16,75.84,86.61,55.69,149.28-5.85,18.15-24.21,48.54-36.74,62.78-22.12,25.16-60,30.62-110.17,23.7,8.41,50.46,21.15,115.84,13,181.26-1.62,13.09-5.68,25.9-7.11,39.1-6.68,61.58-9.11,107.35-49.76,129.13-31.63,6.23-52.79,28.19-82.92,39.1-33.25,12-67.88,17.89-91.23,39.09-6,5.44-14.37,11.8-17.77,16.59-1.83,2.58-.81,6.92-2.37,9.47-5.38,8.86-22.61,17.52-28.43,27.25-5.64-1.28-10.75-3.19-16.58-1.18a185.63,185.63,0,0,1-7.11,36.72c4.06,29,26.05,35.26,48.57,49.77,10.7,6.88,30,19.61,30.8,27.25,1.33,12.2-13.41,14.36-16.58,24.87-22,2.08-42.31,8.22-62.79,3.56-19.71-4.49-38.61-19-56.87-22.51-9.54-26-30.94-40.16-59.24-47.39-7.4,9.58-16.85,17.11-19,32-14.75,15.25-37.73,22.28-58.05,32-4.81,16.9-11.29,32.14-16.58,48.58,0,4-5.49,2.41-7.11,4.74-.3,17-17,30.12-20.14,48.57-.62,3.63,1.23,7.59,1.19,11.85-.21,17-4.63,37-1.19,50.94,2.31,9.4,9.05,16.54,11.85,23.69-2.36,33.12,32,56.79,14.21,88.86-20.26,36.6-90.08.38-112.55-13-14.1-16.62-24.29-33.62-29.62-61.61-1.48-7.8-5.19-17.69-4.74-24.88.27-4.12,4.23-7.82,4.74-11.85,2.29-17.69-6.46-39.08-9.47-56.86-.67-3.94,1.24-8.27-1.19-11.85-15.52-11.12-43.85-74.12-22.51-96,15.42-15.78,54.25-14.76,65.16-40.28,4.41-10.29,1.93-24.1,9.48-33.17,8.71-1.5,15.87-9.73,26.06-14.23,7.27-3.18,16.47-2.78,20.14-10.66,4.56-9.76,3.52-21.47,7.11-28.43,5.42-10.45,15.43-13.8,26.07-26.06,7.29-8.4,12.94-20.47,21.32-30.81,16.71-20.6,28.28-33.81,46.21-55.68,14.4-17.57,21.1-28,46.2-28.43,2.3-8,.72-19.82,5.92-24.88,3.07-1.27,10.8,1.41,15.4,2.37,4.44-8.78-2.2-14.63-1.18-21.32,1.67-11,16.19-14,17.77-26.07h9.48c-2.05-5.63-6.13-10.14-4.74-18.95,1.52-9.7,14-15.91,15.41-29.62,3-29.7,1.17-77.92,8.29-107.81-.36-8.17-13.92-14.25-14.22-23.7-.15-4.88,4.5-5.66,5.93-10.66.43-1.54-1.43-4.6-1.19-8.29.2-3.16,3.11-7.22,3.56-10.66,1-7.78-.86-16.35,0-23.7.63-5.39,3.64-10.19,3.55-14.21-.13-5-4.44-9.49-4.74-14.22-.47-7.19,3-15,2.37-22.51-1.16-14.47-7-22.37,3.56-33.17-10.67-8.53-2.81-21.26-13-29.62-1.52-5.22,5.67-4.85,2.37-8.29-5.22-19.44,1.61-49.36-14.22-60.42-19.17-2.28-39.37.6-55.68-7.11-14.4-6.82-28.78-27.73-39.1-41.47-33.32-44.39-61.83-105.59-82.93-157.57-15.36-9.13-25.61-20.07-30.8-34.35-2.09-5.75-1.66-12.23-3.56-17.77-9.48-27.7-28.83-52.77-17.77-93.6,5.05-18.64,20.7-28.3,32-43.83,3.24-4.44,4.74-10.92,8.29-16.59,3-4.78,7.77-9.28,10.66-14.22,10.72-18.21,19.11-40.19,29.63-54.49,4-5.5,11.56-9.42,13-15.4,2.58-10.46-3.11-22.52,4.74-26.07-10.74-22-20-45.52-30.8-67.52-19.87-3.7-13.25-27.36-16.6-47.39-2.31-13.95-13.4-23.06-14.21-34.36-.3-4.32,1.88-8.24,2.37-13,1.48-14.12-2.4-30.59-1.19-42.66.63-6.2,4.47-10.34,7.11-16.58,3.6-8.47,5.05-17.83,8.29-23.7,13.85-24.94,47.42-35.38,62.8-56.86,23.15,2,41.93,1.46,50.94,16.58,8.53-11.56,29.21-9.73,46.2-7.1C2939.42,253,2967.69,271,2976,293.68c6.17,16.84,8.64,56,5.92,80.57-2,17.87-16,34.84-9.47,52.13,49.2-38.21,100.54,24.8,127.94,48.57,14.85,28.19,39.37,46.72,64,65.16-1.45-62.88-6.62-131.24-9.48-194.3-1.06-23.17-4.44-46.31-3.56-66.34.45-10.14,4-19.88,2.37-29.62-2.17-12.87-13.47-23.83-15.4-35.54-2.73-16.63,4.57-35.5,3.56-49.76-8.78,1.53-15.54,9.93-27.25,4.74-4-9.76,2.23-18.92,7.11-23.69,9.14,1.12,14.07,6.45,21.32,9.47V113.61c-1.81,4-20,7.84-24.88,0-.7-18.41,13.12-17.2,24.88-15.4,2.75-10.67.4-26.46,1.18-39.1-13.71.62-30.94,7.1-29.61-11.85h26.06c2.75-8.7.4-22.5,1.19-33.17,20.68,7.9,36.47-8.36,50.94-9.48A187.28,187.28,0,0,1,3216.5,5.8C3230.74,8.09,3242,24.17,3261.52,21.2ZM3149,656.21c1.9-6.24,11-5.07,10.67-10.67s-32.11-22.44-33.17-26.06A303,303,0,0,0,3149,656.21Zm14.22,24.88a32,32,0,0,0,9.48,13c-1.32-5.4.47-13.9-3.56-16.59C3167.34,678.92,3166.22,681,3163.19,681.09Zm-221.55,286.7c-6.22-17.46-18.52-28.85-30.8-40.28C2915.09,947,2920.19,965.55,2941.64,967.79Zm157.58,509.43c6.61-11.55,16.53-19.79,34.35-20.14.32-13.12,12.15-14.71,22.51-17.77,5.73-19.82-8.67-37.91-11.85-58-4.14-26.24-9-53.12-11.84-81.75h-3.56C3119.22,1358.21,3110.19,1423.83,3099.22,1477.22Z"/><path class="cls-2" d="M2904,1822.93a32,32,0,0,1,15.38,4,28.64,28.64,0,0,1,11.68,11.56,31.4,31.4,0,0,1,.07,31.22,29,29,0,0,1-11.56,11.59,31.4,31.4,0,0,1-31.13,0,29.09,29.09,0,0,1-11.58-11.59,31.24,31.24,0,0,1,.06-31.22,28.81,28.81,0,0,1,11.7-11.56A32,32,0,0,1,2904,1822.93Zm0,5.19a26.49,26.49,0,0,0-12.82,3.38,24.14,24.14,0,0,0-9.77,9.65,26.45,26.45,0,0,0-3.52,13.07,26.18,26.18,0,0,0,3.46,13,24.57,24.57,0,0,0,9.68,9.66,26.06,26.06,0,0,0,25.95,0,24.43,24.43,0,0,0,9.65-9.66,26.14,26.14,0,0,0-.06-26,23.93,23.93,0,0,0-9.76-9.65A26.57,26.57,0,0,0,2904,1828.12Zm-13.71,43.39v-33.65h11.56a28.36,28.36,0,0,1,8.58.93,8.27,8.27,0,0,1,4.22,3.25,8.57,8.57,0,0,1,1.58,4.94,9,9,0,0,1-2.63,6.42,10.39,10.39,0,0,1-7,3.06,8.87,8.87,0,0,1,2.86,1.79,37.51,37.51,0,0,1,5,6.67l4.11,6.59H2912l-3-5.31q-3.53-6.26-5.68-7.83a7,7,0,0,0-4.36-1.16h-3.18v14.3Zm5.43-18.94h6.58c3.15,0,5.31-.47,6.45-1.41a4.83,4.83,0,0,0,.89-6.4,4.87,4.87,0,0,0-2.3-1.76,16.62,16.62,0,0,0-5.45-.59h-6.17Z"/></svg>