<svg id="Layer_1" data-name="Layer 1" xmlns="http://www.w3.org/2000/svg" viewBox="0 0 3474.6 2119.55"><defs><style>.cls-1,.cls-2{fill:#fff;}.cls-1{fill-rule:evenodd;}</style></defs><g id="Layer_1-2" data-name="Layer 1"><path class="cls-1" d="M2728.81,1746.34H246.17v123.85H2795.35V1746.34ZM534.72,1842.56l-2.31-28c-.71-8.85-1.6-19.52-1.42-28.77h-.53A271.56,271.56,0,0,1,516.29,1812l-17.37,29.7h-16.8l-16-29.29a236.54,236.54,0,0,1-12-26.64h-.36c-.53,9-1.24,19.82-2.13,29.19L449,1842.53H428.62l8-68.53h28.71l15.59,27.55a244.11,244.11,0,0,1,11,23.8h.54a231,231,0,0,1,11.87-23.9L520.72,1774h28.35l6.91,68.53Zm165.87-29.39c0,21.15-19,30.51-47.67,30.51-27.64,0-45.54-8.85-45.54-30.41V1774h21.84v40c0,13.43,9.74,19.63,24.44,19.63,15.77,0,25.17-6.2,25.17-19.63v-40h21.79Zm81.33,30.41c-12.57,0-25.67-2-32.23-4.28l4.78-10.37a96.44,96.44,0,0,0,28.87,4.38c14,0,21.79-3.77,21.79-9.37,0-5.18-6-8.22-21.26-11.38-19.66-4.06-32.24-10.07-32.24-19.94,0-11.18,16.3-19.72,42.16-19.72,12.94,0,22.52,1.62,28.71,3.45l-5.3,10.08a82.27,82.27,0,0,0-23.75-3.25c-13.83,0-19.85,4.26-19.85,8.22,0,5.3,6.91,7.73,22.86,11.3,20.74,4.48,30.82,10.47,30.82,20.33,0,11-14.49,20.55-45.33,20.55Zm116.27-1H876.41v-68.53h21.81Zm112.7-9.35c8.87,0,18.06-1,23.73-2.54l3.56,9.86c-5.14,1.52-16.48,3-30.83,3-37.93,0-61-13.62-61-34.47,0-22.58,27.27-36.21,63.78-36.21,14.36,0,24.62,1.74,29.06,3.06l-4.78,10a96.48,96.48,0,0,0-23.39-2.64c-24.28,0-41.81,8.73-41.81,25.22,0,15,15.46,24.7,41.66,24.7Zm97.11,9.35h-21.78v-68.53H1108Zm127.06,0-10.81-19.43h-37.93l-10.27,19.43h-22.49l38.27-68.53h27.89l38.8,68.53Zm164.09,0h-22.43l-31.18-30.1a237.53,237.53,0,0,1-21.44-23.7l-.55.12q1.26,14.55,1.07,29.17v24.51h-20v-68.53h24.8l30.84,29.38a183.18,183.18,0,0,1,20.37,23h.36a179.83,179.83,0,0,1-2-28.48v-23.88h20.21Zm81.52,1c-12.58,0-25.7-2-32.24-4.28l4.78-10.37a96.77,96.77,0,0,0,28.88,4.38c14,0,21.8-3.77,21.8-9.37,0-5.18-6-8.22-21.26-11.38-19.68-4.06-32.25-10.07-32.25-19.94,0-11.18,16.3-19.72,42.17-19.72,12.92,0,22.5,1.62,28.7,3.45l-5.33,10.08a81.8,81.8,0,0,0-23.73-3.25c-13.81,0-19.84,4.26-19.84,8.22,0,5.3,6.9,7.73,22.86,11.3,20.71,4.48,30.82,10.47,30.82,20.33,0,11-14.49,20.55-45.31,20.55Zm233.2-1-10.81-19.43h-37.91l-10.29,19.43h-22.49l38.27-68.53h27.8l38.82,68.53Zm124-9.35c8.87,0,18.06-1,23.73-2.54l3.56,9.86c-5.14,1.52-16.48,3-30.85,3-37.91,0-60.92-13.62-60.92-34.47,0-22.58,27.26-36.21,63.76-36.21,14.37,0,24.65,1.74,29.07,3.06l-4.78,10a96.61,96.61,0,0,0-23.4-2.64c-24.27,0-41.8,8.73-41.8,25.22.07,15,15.48,24.7,41.7,24.7Zm149.19,9.35-10.81-19.43h-37.91l-10.28,19.43h-22.48l38.27-68.53h27.87l38.8,68.53Zm153-8.64c-11.86,6.19-30.82,9.35-54,9.35-12.76,0-22.32-.41-29.41-.91V1775c9.56-.9,21.79-1.42,34.71-1.42,22.32,0,37.75,2.65,48.72,7.93,11.54,5.39,18.63,13.53,18.63,25.23,0,12.18-7.29,21.33-18.63,27.23Zm139.11,8.64h-72.09v-68.53h69.45v10.25h-47.66V1802h45v10.16h-45v20.13h50.3Zm151.7,0-2.31-28c-.72-8.85-1.58-19.52-1.42-28.77h-.52a268.33,268.33,0,0,1-14.18,26.23l-17.37,29.7h-16.81l-16-29.29a236.13,236.13,0,0,1-12.06-26.64h-.33c-.56,9-1.25,19.82-2.14,29.19l-2.67,27.55h-20.34l8-68.53h28.71l15.6,27.55a238.44,238.44,0,0,1,11,23.8h.53a239.27,239.27,0,0,1,11.87-23.9l16.48-27.45h28.35l6.92,68.53Zm121.73-28.87v28.87h-21.79V1814l-37.74-40h24.82l14.34,17.59c4.09,5.08,7.09,8.93,10.29,13.62h.36c3-4.37,6.36-8.65,10.45-13.62l14.34-17.59h24.62Z"/><path class="cls-1" d="M2093.31,1783.28a117.16,117.16,0,0,0-14.87.71v49c3,.32,7.62.32,12,.32,28.35.1,45.2-8.86,45.2-26.25C2135.83,1791.91,2120.6,1783.28,2093.31,1783.28Z"/><path class="cls-1" d="M1684,1784h-.34c-1.78,4-3.56,8.73-5.67,12.81l-9.23,16.89h30.65L1690,1796.8C1687.72,1792.62,1685.72,1788,1684,1784Z"/><path class="cls-1" d="M1205.14,1784h-.36c-1.77,4-3.53,8.73-5.67,12.81l-9.2,16.89h30.64l-9.38-16.89C1208.87,1792.62,1206.92,1788,1205.14,1784Z"/><path class="cls-1" d="M1957.2,1784h-.36c-1.75,4-3.53,8.73-5.67,12.81l-9.2,16.89h30.66l-9.4-16.89C1960.93,1792.62,1959,1788,1957.2,1784Z"/><polygon class="cls-2" points="2795.34 751.4 591.65 751.4 591.74 748.63 563.71 747.34 548.93 746.48 528.54 743.05 509.19 738.75 497.98 734.03 489.31 729.31 479.12 722.43 468.94 715.13 456.7 702.24 448.55 692.36 439.88 679.47 434.29 670.88 430.71 665.3 384.86 669.16 351.74 674.75 322.18 679.9 286 690.21 230.47 701.81 216.19 703.52 208.04 703.96 200.41 704.39 195.81 703.96 189.69 703.1 184.6 702.67 180.53 701.38 176.46 699.66 172.38 695.8 169.31 691.93 156.57 670.45 148.43 659.72 137.72 651.13 127.03 645.11 116.33 641.24 106.64 639.1 99 637.8 90.33 637.8 79.64 638.67 65.89 642.1 55.69 646.39 40.91 654.13 30.73 663.16 20.54 673.88 11.36 693.65 9.84 705.68 9.32 721.57 12.38 735.31 19.5 751.21 27.66 762.37 35.81 770.54 41.94 775.7 53.66 783.86 67.41 790.73 478.62 913.15 490.33 916.58 499.5 917.45 506.13 917.88 512.75 916.58 518.36 915.3 522.43 913.15 526 909.71 550.97 881.37 555.04 877.5 558.62 875.78 563.71 875.35 565.45 875.25 2795.34 875.25 2795.34 751.4"/><path class="cls-2" d="M496.91,1304.1c-3.69-9.27-9.6-37.93-15.3-65.66-2.66-12.92-5.43-26.38-8.24-39.31-7.11-32.46-17.18-54.09-31.78-67.54,24.14-17.52,45-50.37,45-93.77,0-37.17-10.59-66.37-31.3-86.62-22.77-23.17-55.21-33.51-105.18-33.51-35.2,0-69.11,3.16-93,8.67l-8.66,2v391.07H338.1V1171.34h8.62c18.44.36,30.17,3,38.77,51.18,8,43.85,15.94,77.51,21.2,90l2.88,6.84H503ZM396.46,1044.52c0,27.35-15.6,43-42.82,43H338v-83a189,189,0,0,1,19.63-.81C383.41,1003.74,396.46,1017.46,396.46,1044.52Z"/><path class="cls-2" d="M640.42,914.34c-92.7,0-157.45,85.7-157.45,208.41,0,119.42,62.73,202.81,152.54,202.81H636c96.18,0,158.34-82.23,158.34-209.52C794.3,995.4,732.46,914.34,640.42,914.34Zm-1.78,321.27h-.45c-36.24,0-61.55-47.33-61.55-115.1,0-56,19.4-116.21,62-116.21,42,0,61.1,59.37,61.1,114.54C699.72,1177,680.85,1235.61,638.64,1235.61Z"/><path class="cls-2" d="M1024.16,1221.24c-12.54,6.59-33.4,11-51.92,11-53.06,0-84.74-41.78-84.74-111.75,0-71.37,31.51-114,84.3-114,23.58,0,41.18,6.86,51.78,12.62l13.1,7.12,19-89.18-6.44-4.19c-13.2-8.52-42.08-18.52-80.12-18.52C864.28,914.34,793.84,999,793.84,1125c0,57.52,14.56,106.63,42.1,142,29.83,38.32,73.57,58.56,126.49,58.56,36.58,0,67.78-8.93,82.47-17.8l6.36-3.83-13.17-90Z"/><path class="cls-2" d="M1229.36,1092.69l106.81-172.2H1225.62l-71,131.07-.87,1.63V920.49h-89.64v398.93h89.61V1188.61l12.62-19.69,68.54,150.5h103.89Z"/><path class="cls-2" d="M1461.88,1074.69c-40.67-19.68-49.45-27.42-49.45-43.58,0-12.15,8.55-25.14,32.56-25.14a107.93,107.93,0,0,1,56.54,16.19l13.36,8.37L1535.24,939l-6.94-4.13c-22.94-13.65-50.66-20.57-82.42-20.57-73.53,0-124.88,51-124.88,124,0,54.7,30.13,95.92,89.68,122.56,36.53,15.82,43.68,27.47,43.68,42.26,0,24.94-19.89,30.17-36.58,30.17-26.81,0-53.35-11.17-69.26-21.63l-13.83-9.1-18.48,93.31,6,4.17c17.71,12.25,53.9,25.44,91.53,25.44,80.2,0,132-50.22,132-127.94C1545.8,1140.27,1519.07,1101.18,1461.88,1074.69Z"/><polygon class="cls-2" points="1538.19 920.49 1538.19 1014.35 1619.38 1014.35 1619.38 1319.42 1709.46 1319.42 1709.46 1014.35 1791.55 1014.35 1791.55 920.49 1538.19 920.49"/><path class="cls-2" d="M1975.08,920.49H1868.86l-97.34,398.93h93.66l21-96.66h68.76l23.19,96.66h96.2Zm-55.24,131.06c1.34,6.58,2.68,13,4,19l15.51,66.16H1901l15.21-66.47C1917.38,1064.41,1918.6,1058.1,1919.84,1051.55Z"/><path class="cls-2" d="M2468.49,1074.7c-40.67-19.69-49.45-27.44-49.45-43.59,0-12.15,8.55-25.14,32.56-25.14a107.8,107.8,0,0,1,56.53,16.19l13.37,8.37L2541.85,939l-7-4.13c-22.92-13.65-50.66-20.57-82.4-20.57-73.54,0-124.89,51-124.89,124,0,54.7,30.13,95.92,89.69,122.56,36.52,15.82,43.66,27.47,43.66,42.26,0,24.94-19.87,30.17-36.56,30.17-26.82,0-53.37-11.17-69.27-21.63l-13.84-9.1-18.46,93.31,6,4.17c17.7,12.25,53.91,25.44,91.53,25.44,80.2,0,132-50.22,132-127.94C2552.4,1140.27,2525.72,1101.18,2468.49,1074.7Z"/><path class="cls-2" d="M660.12,1347.5c-92.7,0-157.45,76-157.45,184.75,0,105.87,62.73,179.82,152.55,179.82h.44c96.19,0,158.34-72.9,158.34-185.72C814,1419.34,752.16,1347.5,660.12,1347.5Zm-1.78,282.73h-.45c-42.52,0-61.55-50.2-61.55-100,0-50.24,19.17-100.93,62-100.93,42,0,61.1,51.55,61.1,99.45C719.44,1590.42,695.46,1630.23,658.34,1630.23Z"/><path class="cls-2" d="M1171.61,1352.92H1063.4l-34,118.34c-5.92,21.59-12.1,46.1-17.92,71-4.9-23.55-10.4-47.17-16.3-70l-31.64-119.42H853.86l-20.48,353.74h85.34L925,1570c.58-13.57,1.19-28.58,1.79-44.48,3,13.66,6.16,26.89,9.26,39.34l34.24,136.29h70.2l38.83-137.28c4.64-15.57,9.39-32.29,14-49.45.48,19.85,1.06,38.33,1.61,54.54l5.32,137.6h88.46Z"/><path class="cls-2" d="M1366.14,1347.5c-92.71,0-157.45,76-157.45,184.75,0,105.87,62.72,179.82,152.54,179.82h.45c96.18,0,158.33-72.9,158.33-185.72C1520,1419.34,1458.18,1347.5,1366.14,1347.5Zm-2.23,282.73c-36.24,0-61.56-41.1-61.56-100,0-50.24,19.18-100.93,62-100.93,42,0,61.11,51.55,61.11,99.45,0,61.67-24,101.48-61.55,101.48Z"/><path class="cls-2" d="M1795.09,1690.86c-3.61-8-9.49-33.1-15.17-57.4-2.67-11.37-5.44-23.21-8.25-34.59-4.6-18.49-12.55-42.78-30.39-58.6a99,99,0,0,0,43.65-82.76c0-33.36-10.76-59.55-31.81-77.66-22.7-20.33-55-29.4-104.67-29.4-35.1,0-68.9,2.78-92.75,7.6l-8.94,1.82v346.79h89.65V1576.34h8.72c20.35.35,30.81,4.83,38.79,44.2,8,38.76,16,68.57,21.38,79.75l3,6.35h93.93Zm-100.25-227.45c0,23.21-15.61,36.52-42.82,36.52h-15.61v-70.36c4.3-.4,10.56-.71,19.62-.71,25.76,0,38.81,11.62,38.81,34.55Z"/><path class="cls-2" d="M2064,1690.86c-3.61-8-9.49-33.1-15.17-57.4-2.67-11.37-5.44-23.21-8.24-34.59-4.6-18.49-12.56-42.78-30.39-58.6a99,99,0,0,0,43.65-82.76c0-33.36-10.77-59.55-31.82-77.66-22.7-20.33-55-29.4-104.67-29.4-35.09,0-68.9,2.78-92.75,7.6l-8.94,1.82v346.79h89.65V1576.34h8.72c20.35.35,30.81,4.83,38.79,44.2,8,38.76,16,68.57,21.38,79.75l3,6.35h93.93Zm-100.24-227.45c0,23.21-15.61,36.52-42.83,36.52h-15.61v-70.36c4.31-.4,10.56-.71,19.62-.71,25.76,0,38.82,11.62,38.82,34.55Z"/><path class="cls-2" d="M2228.24,1347.5c-92.7,0-157.44,76-157.44,184.75,0,105.87,62.72,179.82,152.54,179.82h.44c96.19,0,158.34-72.9,158.34-185.72C2382.12,1419.34,2320.28,1347.5,2228.24,1347.5Zm-1.77,282.73H2226c-36.24,0-61.55-41.1-61.55-100,0-50.24,19.17-100.93,62-100.93,42,0,61.09,51.55,61.09,99.45C2287.56,1590.42,2263.58,1630.23,2226.47,1630.23Z"/><path class="cls-2" d="M2702.41,1352.92l-26.24,144.65q-2.24,14.27-4.52,28.35-1,6.09-1.94,12.08c-1.86-12.16-3.8-24.12-5.89-36.17l-25.68-148.91h-90.88l-27.15,144.36c-2.94,16-5.93,32.42-8.78,48.74-2.44-15.88-5-31.92-7.61-47.58l-24.32-145.52h-96l76.18,353.74h92.62l30.32-151.43c2.11-9.88,4-19.57,5.82-29.36,1.5,9.36,3.12,18.93,4.86,29l27.06,151.8h91.77l82.84-353.74Z"/><path class="cls-2" d="M2736.07,927.47h-105.5c-32.92,0-59.71,30.73-59.71,68.51V1245.2c0,37.77,26.79,68.51,59.71,68.51h105.5c32.91,0,59.7-30.74,59.7-68.51V996C2795.77,958.2,2769,927.47,2736.07,927.47ZM2615,965.11h35.68v69.45h24.08v-64.9h35.46v64.9h58v49.7H2615Zm77.68,318.42c-47.13,0-80-38-80-92.44,0-62.36,38.91-90.28,77.47-90.28,48.88,0,80.46,36.49,80.46,93,0,52.92-32.07,89.72-77.93,89.72Z"/><path class="cls-2" d="M2691.14,1153.19c-21.76,0-43.71,12-43.71,39,0,27.29,22.27,39.51,44.36,39.51,26.27,0,43.92-15.77,43.92-39.24C2735.72,1168.49,2718.22,1153.19,2691.14,1153.19Z"/><polygon class="cls-2" points="244.88 1352.92 244.88 1438.2 326.06 1438.2 326.06 1706.66 416.15 1706.66 416.15 1438.2 498.23 1438.2 498.23 1352.92 244.88 1352.92"/><path class="cls-2" d="M2334.72,1319.42h-93.46l-2.87-6.84c-5.26-12.54-13.2-46.21-21.2-90-8.59-48.15-20.33-50.82-38.77-51.18h-8.7v148.06h-89.64V928.34l8.65-2c23.93-5.51,57.85-8.67,93-8.67,50,0,82.4,10.34,105.17,33.51,20.72,20.25,31.31,49.46,31.31,86.62,0,43.4-20.84,76.25-45,93.77,14.59,13.45,24.66,35.08,31.77,67.54,2.81,12.92,5.58,26.36,8.23,39.26,5.71,27.75,11.62,56.44,15.31,65.71Zm-56.47-306.5h-68.46l-21.14-65.09-21.27,65.09H2099l55.27,40.35L2133,1118.74l55.58-40.4,55.53,40.49-21.29-65.53Z"/><path class="cls-1" d="M3266.24,26.58c-1.26,13.77-4.87,25.19-5.92,39.18,13.88-1.53,20.08-10.75,37.91-8.31.66,11.35-.46,20.92-5.93,26.12-15.18.18-22-8-32-13.06a189.23,189.23,0,0,0-5.93,47.49c11.87-3.81,27.32-4.7,39.1,0,1.3,9.23-4.12,11.7-8.3,15.44-14.8,2.18-20.85-4.43-30.8-7.13-5.38,12-3.57,31.25-5.92,46.31,15.69,5.35,26.41-10.63,43.83-3.56,4.14,9.16-1.44,18.13-5.92,22.56-15-.76-21-10.63-35.54-11.88-6,10.84-1.54,27.48-5.92,41.56-2.53,8.12-10.67,12-15.41,19-19,28.1-11.22,68.54-8.29,111.61,5.32,78.14,11,160.32,17.77,238.66,16.31,13.47,28.43,23.12,33.17,49.86.91,5.11-.79,12.83,1.19,17.81,2.72,6.83,12.69,8.22,15.4,14.25-4.74,8.79-1.22,10.11,1.18,17.81.73,2.3-1.51,4.62-1.18,8.32.39,4.32,3.57,6.94,3.55,9.49-.08,14-12.16,24.25-14.21,36.81-2.77,16.91,6.69,39.69,15.4,51.06,7.44,9.69,18.19,13.91,26.06,21.37,26,7.14,46.29.15,59.24-14.25,20,5.07,22.5,32.91,13,54.62-9.32,21.39-32.31,31.9-22.51,60.55,5.62,16.4,23.74,30.15,35.54,43.93,27.61,32.23,75.84,86.8,55.69,149.61-5.85,18.19-24.21,48.65-36.74,62.92-22.12,25.22-60,30.69-110.17,23.75,8.41,50.57,21.15,116.09,13,181.66-1.62,13.12-5.68,26-7.11,39.19-6.68,61.71-9.11,107.59-49.76,129.41-31.63,6.25-52.79,28.25-82.92,39.18-33.25,12.06-67.88,17.94-91.23,39.19-6,5.44-14.37,11.82-17.77,16.62-1.83,2.59-.81,6.94-2.37,9.5-5.38,8.87-22.61,17.55-28.43,27.3-5.64-1.28-10.75-3.19-16.58-1.18a186.71,186.71,0,0,1-7.11,36.8c4.06,29.08,26,35.34,48.57,49.88,10.7,6.89,30,19.65,30.8,27.31,1.33,12.23-13.41,14.39-16.58,24.93-22,2.08-42.31,8.23-62.79,3.56-19.71-4.49-38.61-19-56.87-22.56-9.54-26.07-30.94-40.24-59.24-47.49-7.4,9.6-16.85,17.15-19,32.06-14.75,15.28-37.73,22.33-58.05,32-4.81,16.94-11.29,32.21-16.58,48.68,0,4-5.49,2.42-7.11,4.75-.3,17-17,30.19-20.14,48.68-.62,3.64,1.23,7.61,1.19,11.87-.21,17.06-4.63,37-1.19,51.06,2.31,9.42,9.05,16.58,11.85,23.74-2.36,33.2,32,56.92,14.21,89.06-20.26,36.68-90.08.38-112.55-13.06-14.1-16.66-24.29-33.7-29.62-61.75-1.48-7.81-5.19-17.73-4.74-24.93.27-4.13,4.23-7.83,4.74-11.87,2.29-17.73-6.46-39.18-9.47-57-.67-4,1.24-8.29-1.19-11.88C2644,1902,2615.69,1838.91,2637,1817c15.42-15.81,54.25-14.8,65.16-40.37,4.4-10.31,1.92-24.15,9.48-33.24,8.7-1.5,15.87-9.75,26.06-14.26,7.27-3.19,16.47-2.79,20.13-10.68,4.57-9.79,3.53-21.52,7.12-28.5,5.42-10.47,15.43-13.83,26.07-26.12,7.29-8.41,12.94-20.51,21.32-30.87,16.71-20.64,28.28-33.89,46.21-55.8,14.4-17.61,21.1-28.11,46.2-28.5,2.3-8,.72-19.86,5.92-24.93,3.07-1.27,10.8,1.41,15.39,2.37,4.44-8.8-2.19-14.66-1.17-21.37,1.66-11,16.18-14,17.77-26.12h9.48c-2.06-5.65-6.13-10.16-4.74-19,1.52-9.73,14-16,15.4-29.69,3-29.77,1.17-78.09,8.29-108-.36-8.18-13.91-14.27-14.21-23.75-.15-4.89,4.5-5.67,5.92-10.68.43-1.55-1.42-4.61-1.18-8.31.19-3.16,3.11-7.23,3.56-10.69,1-7.79-.87-16.38,0-23.74.62-5.41,3.63-10.21,3.55-14.25-.13-5.06-4.44-9.51-4.74-14.25-.47-7.2,3-15,2.37-22.56-1.16-14.5-7-22.41,3.56-33.24-10.67-8.55-2.81-21.31-13-29.68-1.52-5.24,5.67-4.87,2.37-8.32-5.22-19.48,1.61-49.46-14.22-60.55-19.17-2.29-39.37.6-55.68-7.13-14.4-6.83-28.78-27.78-39.1-41.56-33.32-44.49-61.83-105.81-82.93-157.91-15.36-9.15-25.61-20.12-30.8-34.43-2.09-5.76-1.66-12.26-3.56-17.81-9.48-27.76-28.83-52.89-17.77-93.8,5-18.69,20.7-28.36,32-43.93,3.24-4.45,4.74-10.94,8.29-16.63,3-4.79,7.77-9.29,10.66-14.24,10.72-18.26,19.11-40.28,29.63-54.62,4-5.51,11.56-9.44,13-15.43,2.58-10.48-3.11-22.58,4.74-26.12-10.74-22.09-20-45.63-30.8-67.68-19.87-3.7-13.25-27.41-16.6-47.49-2.32-14-13.4-23.11-14.21-34.44-.3-4.33,1.87-8.25,2.37-13.06,1.48-14.15-2.4-30.65-1.19-42.75.63-6.21,4.47-10.37,7.11-16.62,3.6-8.48,5-17.87,8.29-23.74,13.85-25,47.42-35.47,62.8-57,23.15,2,41.93,1.47,50.94,16.63,8.53-11.6,29.21-9.76,46.2-7.13,15.55,13.82,43.82,31.91,52.14,54.62,6.17,16.87,8.64,56.13,5.92,80.74-2,17.92-16,34.92-9.47,52.25,49.3-38.25,100.64,24.92,128,48.75,14.85,28.26,39.37,46.82,64,65.31-1.45-63-6.62-131.53-9.48-194.73-1.06-23.22-4.44-46.41-3.56-66.49.45-10.16,4-19.92,2.37-29.68-2.17-12.89-13.47-23.88-15.4-35.62-2.73-16.67,4.57-35.57,3.56-49.87-8.78,1.53-15.54,10-27.25,4.75-4-9.78,2.23-19,7.11-23.74,9.14,1.12,14.07,6.47,21.32,9.49V119.19c-1.81,4-20,7.86-24.88,0-.7-18.45,13.12-17.23,24.88-15.44,2.75-10.69.4-26.51,1.18-39.18-13.71.62-30.94,7.12-29.61-11.87h26.06c2.75-8.72.4-22.56,1.19-33.25,20.68,7.92,36.47-8.37,50.94-9.5a189.16,189.16,0,0,1,23.67,1.19C3235.46,13.44,3246.72,29.55,3266.24,26.58ZM3153.72,663c1.9-6.25,11-5.08,10.67-10.68s-32.11-22.5-33.17-26.12A301.48,301.48,0,0,0,3153.72,663Zm14.22,24.94a31.92,31.92,0,0,0,9.48,13.06c-1.32-5.41.47-13.93-3.56-16.62-1.8,1.38-2.92,3.42-6,3.56ZM2946.36,975.25c-6.22-17.5-18.52-28.91-30.8-40.37C2919.81,954.39,2924.91,973,2946.36,975.25Zm157.58,510.56c6.61-11.58,16.53-19.84,34.35-20.19.32-13.14,12.15-14.74,22.51-17.81,5.73-19.87-8.67-38-11.85-58.18-4.14-26.29-9-53.23-11.84-81.93h-3.56C3123.94,1366.54,3114.91,1432.34,3103.94,1485.81Z"/><path class="cls-2" d="M2915.57,1827.18a22.63,22.63,0,0,1,10.9,2.84,20.25,20.25,0,0,1,8.27,8.21,22.32,22.32,0,0,1,.05,22.17,20.59,20.59,0,0,1-8.19,8.23,22.21,22.21,0,0,1-22.06,0,20.68,20.68,0,0,1-8.2-8.23,22.22,22.22,0,0,1,0-22.17,20.42,20.42,0,0,1,8.29-8.21A22.63,22.63,0,0,1,2915.57,1827.18Zm0,3.68a18.82,18.82,0,0,0-9.09,2.4,17.22,17.22,0,0,0-6.92,6.85,18.57,18.57,0,0,0,0,18.51,17.38,17.38,0,0,0,6.86,6.85,18.41,18.41,0,0,0,18.39,0,17.25,17.25,0,0,0,6.83-6.85,18.6,18.6,0,0,0,0-18.49,17,17,0,0,0-6.91-6.85,18.8,18.8,0,0,0-9.08-2.42Zm-9.72,30.82v-23.91h8.2a20.14,20.14,0,0,1,6.08.67,5.94,5.94,0,0,1,3,2.3,6.18,6.18,0,0,1,1.12,3.55,6.39,6.39,0,0,1-1.87,4.56,7.42,7.42,0,0,1-5,2.18,6.29,6.29,0,0,1,2,1.26A27.21,27.21,0,0,1,2923,1857l2.91,4.68h-4.65l-2.13-3.77q-2.51-4.44-4-5.56a4.91,4.91,0,0,0-3.09-.82h-2.26v10.15Zm3.85-13.47h4.66c2.24,0,3.77-.33,4.58-1a3.46,3.46,0,0,0,.63-4.55,3.5,3.5,0,0,0-1.63-1.24,11.49,11.49,0,0,0-3.87-.42h-4.37Z"/></g></svg>